<svg width="44" height="44" viewBox="0 0 44 44" fill="none" xmlns="http://www.w3.org/2000/svg">
<path fill-rule="evenodd" clip-rule="evenodd" d="M22 4.125C12.1279 4.125 4.125 12.1279 4.125 22C4.125 31.8721 12.1279 39.875 22 39.875C31.8721 39.875 39.875 31.8721 39.875 22C39.875 12.1279 31.8721 4.125 22 4.125ZM22.9723 14.1527C22.7144 13.8949 22.3647 13.75 22 13.75C21.6353 13.75 21.2856 13.8949 21.0277 14.1527L15.5277 19.6527C14.9908 20.1897 14.9908 21.0603 15.5277 21.5973C16.0647 22.1342 16.9353 22.1342 17.4723 21.5973L20.625 18.4445L20.625 28.875C20.625 29.6344 21.2406 30.25 22 30.25C22.7594 30.25 23.375 29.6344 23.375 28.875L23.375 18.4445L26.5277 21.5973C27.0647 22.1342 27.9353 22.1342 28.4723 21.5973C29.0092 21.0603 29.0092 20.1897 28.4723 19.6527L22.9723 14.1527Z" fill="#FF76D9"/>
</svg>
