<svg width="146" height="30" viewBox="0 0 146 30" fill="none" xmlns="http://www.w3.org/2000/svg">
<path d="M2.20605 25.8088C2.20605 23.9814 4.12123 22.5 6.48372 22.5H138.664C141.026 22.5 142.941 23.9814 142.941 25.8088C142.941 27.6362 141.026 29.1177 138.664 29.1177H6.48373C4.12123 29.1177 2.20605 27.6362 2.20605 25.8088Z" fill="#B7FE02"/>
<path fill-rule="evenodd" clip-rule="evenodd" d="M81.9057 12.8382C81.8478 13.2736 81.4175 13.553 80.9765 13.4701L76.7502 12.6762C76.3023 12.5921 76.0167 12.1659 76.0424 11.7207C76.0486 11.6135 76.0518 11.5051 76.0518 11.3957C76.0518 11.2862 76.0486 11.1778 76.0424 11.0707C76.0167 10.6255 76.3023 10.1993 76.7502 10.1151L80.9765 9.3212C81.4175 9.23835 81.8478 9.51772 81.9057 9.95307C81.9686 10.4255 82.001 10.907 82.001 11.3957C82.001 11.8843 81.9686 12.3658 81.9057 12.8382ZM79.4773 4.40385C79.7657 4.75576 79.6605 5.26689 79.2738 5.51271L75.7049 7.78154C75.3326 8.01821 74.8391 7.9175 74.5404 7.59621C74.3806 7.42426 74.2101 7.26137 74.0301 7.10854C73.6818 6.81293 73.5742 6.30733 73.836 5.93608L76.2151 2.56165C76.4671 2.20421 76.9665 2.10575 77.3219 2.36601C78.1278 2.95609 78.8525 3.64127 79.4773 4.40385ZM71.5237 0.0909761C71.9764 0.145452 72.2678 0.573707 72.1768 1.01066L71.3493 4.98221C71.2597 5.4124 70.8321 5.68656 70.3838 5.66031C70.2574 5.65291 70.1295 5.64913 70 5.64913C69.8705 5.64913 69.7426 5.65291 69.6162 5.66031C69.1678 5.68656 68.7403 5.4124 68.6506 4.98221L67.8232 1.01066C67.7322 0.573707 68.0235 0.145452 68.4763 0.0909762C68.9753 0.030941 69.4838 0 70 0C70.5161 0 71.0247 0.0309409 71.5237 0.0909761ZM10.2783 23.809V18.4907H11.3501L14.8634 23.809H20.4906L15.5482 16.6789L20.1929 9.78263H14.5359L11.4097 14.6919H10.2783V9.78263H5.2168V23.809H10.2783ZM28.8726 13.5814H31.4033V23.809H36.4648V9.78263H24.2577C23.9897 15.3932 23.692 19.8933 21.5483 19.8933C21.3101 19.8933 21.0421 19.8349 20.7444 19.718V23.6629C21.6971 23.9844 22.5606 24.1305 23.3049 24.1305C27.3541 24.1305 28.5153 19.4258 28.8726 13.5814ZM49.0246 17.1757L43.9333 23.809H39.497V9.78263H44.5585V16.4159L49.6498 9.78263H54.0861V23.809H49.0246V17.1757ZM62.1784 23.809V18.4907H63.2503L66.7635 23.809H72.3907L67.4483 16.6789L72.093 9.78263H66.436L63.3098 14.6919H62.1784V9.78263H57.1169V23.809H62.1784ZM105.565 16.953C105.565 12.4541 102.991 10.0546 99.5783 10.0546C97.423 10.0546 96.076 11.0144 95.2378 12.0642C95.2378 10.8944 95.9862 9.21482 97.453 8.49499C98.5575 7.9483 99.6679 7.81656 100.724 7.69129C102.043 7.53478 103.277 7.38838 104.308 6.45547V1.95651C103.383 2.85481 102.032 3.06847 100.425 3.32257C98.6514 3.60296 96.5667 3.93259 94.3997 5.28574C91.8254 6.90536 89.9994 9.69471 89.9994 15.0035C89.9994 21.6019 93.6214 23.8514 97.7822 23.8514C102.093 23.8514 105.565 21.6019 105.565 16.953ZM95.2378 16.953C95.2378 15.9333 95.5372 13.9537 97.7822 13.9537C100.027 13.9537 100.327 15.9333 100.327 16.953C100.327 17.9728 100.027 19.9523 97.7822 19.9523C95.5372 19.9523 95.2378 17.9728 95.2378 16.953ZM121.55 19.2925V15.2734C121.55 10.1446 118.617 8.55498 114.037 8.55498C111.911 8.55498 109.636 9.12485 108.439 9.51476V13.8038C109.846 13.2339 111.582 12.694 113.468 12.694C115.503 12.694 116.461 13.4738 116.461 14.4936V15.0035C115.503 14.7935 114.426 14.6736 113.348 14.6736C110.564 14.6736 107.122 15.7833 107.122 19.4125C107.122 22.2018 109.367 23.8514 112.121 23.8514C114.156 23.8514 115.743 23.1916 117.12 22.1118C117.778 23.1316 118.946 23.7015 120.532 23.7015C121.49 23.7015 122.418 23.5215 123.107 23.2516V20.1023C122.927 20.1623 122.717 20.1923 122.538 20.1923C122.029 20.1923 121.55 19.9823 121.55 19.2925ZM112.36 18.9926C112.36 17.8528 113.438 17.4329 114.635 17.4329C115.324 17.4329 116.012 17.5529 116.461 17.7029V19.6524C115.683 20.2223 114.935 20.4022 114.096 20.4022C113.019 20.4022 112.36 19.7424 112.36 18.9926ZM129.697 9.00487V10.9544C130.416 9.7547 132.002 8.55498 134.576 8.55498C139.396 8.55498 141.521 12.4841 141.521 16.2032C141.521 19.9223 139.396 23.8514 134.576 23.8514C132.571 23.8514 131.164 23.1316 130.296 22.2318V30H125.207V9.00487H129.697ZM133.2 19.6524C135.355 19.6524 136.283 17.8828 136.283 16.2032C136.283 14.5236 135.355 12.754 133.2 12.754C131.793 12.754 130.745 13.6238 130.296 14.5536V17.8528C130.745 18.7826 131.793 19.6524 133.2 19.6524Z" fill="#050509"/>
</svg>
