<svg width="12" height="7" viewBox="0 0 12 7" fill="none" xmlns="http://www.w3.org/2000/svg">
<path d="M10.875 2.125L6.275 6.725C6.175 6.825 6.06667 6.89567 5.95 6.937C5.83333 6.979 5.70833 7 5.575 7C5.44167 7 5.31667 6.979 5.2 6.937C5.08333 6.89567 4.975 6.825 4.875 6.725L0.274999 2.125C0.0916661 1.94167 -2.31306e-07 1.70833 -2.43691e-07 1.425C-2.56076e-07 1.14167 0.091666 0.908334 0.274999 0.725C0.458333 0.541667 0.691666 0.45 0.975 0.45C1.25833 0.45 1.49167 0.541667 1.675 0.725L5.575 4.625L9.475 0.725C9.65833 0.541667 9.89167 0.449999 10.175 0.449999C10.4583 0.449999 10.6917 0.541667 10.875 0.725C11.0583 0.908333 11.15 1.14167 11.15 1.425C11.15 1.70833 11.0583 1.94167 10.875 2.125Z" fill="#050509"/>
</svg>
